<svg width="1280" height="720" xmlns="http://www.w3.org/2000/svg" xmlns:xlink="http://www.w3.org/1999/xlink" overflow="hidden"><defs><clipPath id="clip0"><rect x="0" y="0" width="1280" height="720"/></clipPath><clipPath id="clip1"><rect x="249" y="-31" width="782" height="782"/></clipPath><clipPath id="clip2"><rect x="249" y="-31" width="783" height="783"/></clipPath><clipPath id="clip3"><rect x="249" y="-31" width="783" height="783"/></clipPath></defs><g clip-path="url(#clip0)"><rect x="0" y="0" width="1280" height="720" fill="#FFFFFF"/><g clip-path="url(#clip1)"><g clip-path="url(#clip2)"><g clip-path="url(#clip3)"><path d="M517.812 193.711 490.988 166.887 479.47 178.405 517.812 216.747 596.884 137.676 585.366 126.158 517.812 193.711Z"/><path d="M648.146 172.646 802.917 172.646 802.917 188.937 648.146 188.937Z"/><path d="M517.812 315.898 490.988 289.074 479.47 300.592 517.812 338.935 596.884 259.863 585.366 248.345 517.812 315.898Z"/><path d="M648.146 294.833 802.917 294.833 802.917 311.125 648.146 311.125Z"/><path d="M517.812 438.086 490.988 411.262 479.47 422.78 517.812 461.122 596.884 382.051 585.366 370.533 517.812 438.086Z"/><path d="M648.146 417.021 802.917 417.021 802.917 433.312 648.146 433.312Z"/><path d="M517.812 560.273 490.988 533.449 479.47 544.967 517.812 583.31 596.884 504.238 585.366 492.72 517.812 560.273Z"/><path d="M648.146 539.208 802.917 539.208 802.917 555.5 648.146 555.5Z"/><path d="M395.625 685.833 884.375 685.833 884.375 34.1667 395.625 34.1667ZM411.917 50.4583 868.083 50.4583 868.083 669.542 411.917 669.542Z"/></g></g></g></g></svg>